<svg aria-hidden="true" style="position: absolute; width: 0; height: 0; overflow: hidden;" version="1.1" xmlns="http://www.w3.org/2000/svg" xmlns:xlink="http://www.w3.org/1999/xlink">
<defs>
<symbol id="icon-vector" viewBox="0 0 32 32">
<path d="M29.082 0.314h-4.010c-1.237 0-2.24 0.983-2.24 2.195v3.929c0 1.212 1.003 2.195 2.24 2.195h4.010c1.237 0 2.24-0.983 2.24-2.195v-3.929c0-1.212-1.003-2.195-2.24-2.195z"></path>
<path d="M6.73 23.040h-4.318c-1.332 0-2.412 0.983-2.412 2.195v3.929c0 1.212 1.080 2.195 2.412 2.195h4.318c1.332 0 2.412-0.983 2.412-2.195v-3.929c0-1.212-1.080-2.195-2.412-2.195z"></path>
<path d="M6.25 11.582h-4.009c-1.237 0-2.24 0.983-2.24 2.195v3.929c0 1.212 1.003 2.195 2.24 2.195h4.009c1.237 0 2.24-0.983 2.24-2.195v-3.929c0-1.212-1.003-2.195-2.24-2.195z"></path>
<path d="M17.766 22.978h-4.009c-1.237 0-2.24 0.983-2.24 2.195l-0 3.929c0 1.212 1.003 2.196 2.241 2.196h4.009c1.237 0 2.24-0.983 2.24-2.196v-3.929c0-1.212-1.003-2.195-2.24-2.195z"></path>
<path d="M6.25 0.086h-4.009c-1.237 0-2.24 0.983-2.24 2.195v3.929c0 1.212 1.003 2.195 2.24 2.195h4.009c1.237 0 2.24-0.983 2.24-2.195v-3.929c0-1.212-1.003-2.195-2.24-2.195z"></path>
<path d="M18.076 11.697h-4.009c-1.237 0-2.24 0.983-2.24 2.195v3.929c0 1.212 1.003 2.195 2.24 2.195h4.009c1.237 0 2.24-0.983 2.24-2.195v-3.929c0-1.212-1.003-2.195-2.24-2.195z"></path>
<path d="M29.333 22.978h-4.009c-1.237 0-2.24 0.983-2.24 2.195v3.929c0 1.212 1.003 2.196 2.24 2.196h4.009c1.237 0 2.24-0.983 2.24-2.196v-3.929c0-1.212-1.003-2.195-2.24-2.195z"></path>
<path d="M17.591 0.224h-4.009c-1.237 0-2.24 0.983-2.24 2.195v3.929c0 1.212 1.003 2.195 2.24 2.195h4.009c1.237 0 2.24-0.984 2.24-2.196v-3.929c0-1.212-1.003-2.195-2.24-2.195z"></path>
<path d="M29.044 11.926h-4.009c-1.237 0-2.24 0.983-2.24 2.195v3.929c0 1.212 1.003 2.195 2.24 2.195h4.009c1.237 0 2.24-0.983 2.24-2.195v-3.929c0-1.212-1.003-2.195-2.24-2.195z"></path>
</symbol>
<symbol id="icon-green-harvest" viewBox="0 0 352 32">
<path d="M15.164 31.373c-9.116 0-15.164-6.149-15.164-15.728 0-9.37 5.962-15.644 14.948-15.644 7.561 0 12.874 4.309 13.652 10.792h-6.264c-0.605-3.723-3.499-5.814-7.388-5.814-5.444 0-8.684 4.267-8.684 10.667 0 7.027 3.629 10.75 8.9 10.75 4.58 0 7.517-2.51 7.82-6.274v-0.418h-8.425v-4.685h14.257v3.848c-0.259 7.488-5.703 12.507-13.652 12.507z"></path>
<path d="M32.593 30.954v-30.536h15.164c7.733 0 10.801 3.639 10.801 8.91 0 4.727-3.456 6.986-7.474 7.529v0.125c2.592 0.627 3.759 2.008 4.839 4.727 1.382 3.43 1.599 7.529 3.37 8.994v0.251h-6.912c-1.469-1.422-1.815-5.898-2.592-8.617-0.778-2.803-2.463-3.137-5.617-3.137h-5.53v11.754h-6.048zM38.642 14.348h8.468c3.543 0 5.184-2.008 5.184-4.601 0-2.844-2.031-4.476-5.184-4.476h-8.468v9.077z"></path>
<path d="M62.576 30.954v-30.536h21.558v4.852h-15.51v7.278h13.998v4.852h-13.998v8.575h15.726v4.978h-21.774z"></path>
<path d="M88.55 30.954v-30.536h21.558v4.852h-15.51v7.278h13.998v4.852h-13.998v8.575h15.726v4.978h-21.774z"></path>
<path d="M114.524 30.954v-30.536h7.345l10.455 16.858c3.197 5.103 3.586 6.776 3.586 6.776h0.13l-0.086-23.634h6.049v30.536h-7.388l-10.844-17.359c-2.463-3.932-3.111-6.316-3.111-6.316h-0.086v23.676h-6.049z"></path>
<path d="M146.551 30.954v-6.191h6.308v6.191h-6.308z"></path>
<path d="M157.401 30.954v-30.536h6.048v12.214h14.473v-12.214h6.049v30.536h-6.049v-13.469h-14.473v13.469h-6.048z"></path>
<path d="M186.556 30.954l12.096-30.536h6.568l12.269 30.536h-6.479l-2.551-7.027h-13.090l-2.549 7.027h-6.264zM197.097 19.074h9.634l-2.807-7.529c-1.944-5.563-1.988-6.567-1.988-6.567h-0.087c0 0 0 1.004-1.944 6.567l-2.808 7.529z"></path>
<path d="M220.066 30.954v-30.536h15.164c7.733 0 10.801 3.639 10.801 8.91 0 4.727-3.456 6.986-7.475 7.529v0.125c2.592 0.627 3.759 2.008 4.84 4.727 1.382 3.43 1.598 7.529 3.369 8.994v0.251h-6.912c-1.468-1.422-1.815-5.898-2.592-8.617-0.777-2.803-2.462-3.137-5.617-3.137h-5.53v11.754h-6.048zM226.114 14.348h8.469c3.543 0 5.184-2.008 5.184-4.601 0-2.844-2.031-4.476-5.184-4.476h-8.469v9.077z"></path>
<path d="M256.461 30.954l-11.578-30.536h6.481c0 0 6.264 17.108 6.912 19.2 1.037 3.346 1.512 5.061 1.512 5.061h0.087c-0.043 0 0.433-1.715 1.512-5.061 0.693-2.091 6.697-19.2 6.697-19.2h6.264l-11.147 30.536h-6.739z"></path>
<path d="M276.824 30.954v-30.536h21.559v4.852h-15.511v7.278h13.997v4.852h-13.997v8.575h15.725v4.978h-21.773z"></path>
<path d="M313.613 31.373c-8.036 0-12.873-4.225-12.873-10.499h6.912c-0.087 3.556 2.334 5.521 5.961 5.521 3.846 0 5.66-1.464 5.66-3.639s-1.555-3.096-7.085-4.559c-5.054-1.339-10.584-2.928-10.584-9.203 0-4.978 4.493-8.993 11.578-8.993 7.302 0 11.968 3.974 11.968 9.579h-6.697c-0.043-2.97-2.118-4.601-5.271-4.601-3.068 0-5.097 1.506-5.097 3.514 0 2.384 1.685 3.137 6.091 4.35 6.524 1.757 11.795 2.468 11.795 9.286 0 5.48-5.143 9.244-12.358 9.244z"></path>
<path d="M335.819 30.954v-25.558h-9.547v-4.978h25.101v4.978h-9.506v25.558h-6.048z"></path>
</symbol>
</defs>
</svg>
